<?xml version="1.0" encoding="UTF-8" standalone="no"?><!DOCTYPE svg PUBLIC "-//W3C//DTD SVG 1.1//EN" "http://www.w3.org/Graphics/SVG/1.1/DTD/svg11.dtd"><svg width="100%" height="100%" viewBox="0 0 200 133" version="1.1" xmlns="http://www.w3.org/2000/svg" xmlns:xlink="http://www.w3.org/1999/xlink" xml:space="preserve" xmlns:serif="http://www.serif.com/" style="fill-rule:evenodd;clip-rule:evenodd;"><g><clipPath id="_clip1"><rect x="0" y="0" width="200" height="133"/></clipPath><g clip-path="url(#_clip1)"><rect x="0" y="0" width="200" height="133" style="fill:#012169;fill-rule:nonzero;"/><path d="M0,0l200,133m0,-133l-200,133" style="fill-rule:nonzero;stroke:#fff;stroke-width:23.53px;"/><clipPath id="_clip2"><path d="M100,66.5l100,0l0,66.5l-100,-66.5Z"/></clipPath><g clip-path="url(#_clip2)"><path d="M0,0l200,133m0,-133l-200,133" style="fill-rule:nonzero;stroke:#c8102e;stroke-width:15.69px;"/></g><clipPath id="_clip3"><path d="M100,66.5l100,0l0,-66.5l-100,66.5Z"/></clipPath><g clip-path="url(#_clip3)"><path d="M0,133l200,-133m0,133l-200,-133" style="fill-rule:nonzero;stroke:#c8102e;stroke-width:15.69px;"/></g><clipPath id="_clip4"><path d="M100,66.5l-100,0l0,-66.5l100,66.5Z"/></clipPath><g clip-path="url(#_clip4)"><path d="M200,133l-200,-133m0,133l200,-133" style="fill-rule:nonzero;stroke:#c8102e;stroke-width:15.69px;"/></g><clipPath id="_clip5"><path d="M100,66.5l-100,0l0,66.5l100,-66.5Z"/></clipPath><g clip-path="url(#_clip5)"><path d="M200,0l-200,133m0,-133l200,133" style="fill-rule:nonzero;stroke:#c8102e;stroke-width:15.69px;"/></g><path d="M100,0l0,133m-100,-66.5l200,0" style="fill-rule:nonzero;stroke:#fff;stroke-width:39.22px;"/><path d="M100,0l0,133m-100,-66.5l200,0" style="fill-rule:nonzero;stroke:#c8102e;stroke-width:23.53px;"/></g></g></svg>