<?xml version="1.0" encoding="UTF-8" standalone="no"?><!DOCTYPE svg PUBLIC "-//W3C//DTD SVG 1.1//EN" "http://www.w3.org/Graphics/SVG/1.1/DTD/svg11.dtd"><svg width="100%" height="100%" viewBox="0 0 50 50" version="1.1" xmlns="http://www.w3.org/2000/svg" xmlns:xlink="http://www.w3.org/1999/xlink" xml:space="preserve" xmlns:serif="http://www.serif.com/" style="fill-rule:evenodd;clip-rule:evenodd;stroke-linejoin:round;stroke-miterlimit:2;"><path d="M10.501,26.334c0.688,3.634 2.244,7.905 6.407,10.668c6.897,4.58 16.01,3.721 21.018,-2.872c5.007,-6.592 3.72,-16.01 -2.872,-21.018c-4.495,-3.413 -10.302,-3.902 -15.13,-1.778l-4.387,-3.337c6.824,-4.171 15.792,-3.992 22.541,1.134c8.79,6.676 10.506,19.234 3.829,28.024c-6.676,8.79 -19.233,10.506 -28.024,3.829c-4.643,-3.527 -7.313,-8.696 -7.813,-14.083l-2.718,2.462l-3.352,-3.709l8.803,-8.305l8.099,8.314l-3.587,3.483l-2.814,-2.812Z"/></svg>